<svg width="48" height="48" viewBox="0 0 48 48" fill="none" xmlns="http://www.w3.org/2000/svg">
<path d="M48 24C48 37.2548 37.2548 48 24 48C10.7452 48 0 37.2548 0 24C0 10.7452 10.7452 0 24 0C37.2548 0 48 10.7452 48 24ZM6.63447 24C6.63447 33.5907 14.4093 41.3655 24 41.3655C33.5907 41.3655 41.3655 33.5907 41.3655 24C41.3655 14.4093 33.5907 6.63447 24 6.63447C14.4093 6.63447 6.63447 14.4093 6.63447 24Z" fill="#5879EA"/>
<path d="M33.169 14.1V33H26.797V26.034H20.911V33H14.539V14.1H20.911V20.796H26.797V14.1H33.169Z" fill="#5879EA"/>
</svg>
